<?xml version="1.0" encoding="UTF-8"?>
<!DOCTYPE svg PUBLIC "-//W3C//DTD SVG 1.1//EN" "http://www.w3.org/Graphics/SVG/1.1/DTD/svg11.dtd">
<svg version="1.1" xmlns="http://www.w3.org/2000/svg" xmlns:xlink="http://www.w3.org/1999/xlink" x="0" y="0" width="158" height="104" viewBox="0, 0, 158, 104">
  <g id="Background">
    <rect x="0" y="0" width="158" height="104" fill="#FFFFFF"/>
  </g>
  <g id="Name" transform="scale(1,-1) translate(0,-104)">
    <path d="M 68.7356,74 L 67.5932,74 L 66.8554,76.6299 L 64.3683,76.6299 L 63.6186,74 L 62.5714,74 L 65.2489,82.211 L 66.0581,82.211 L 68.7356,74 z
M 66.6293,77.4153 L 65.9867,79.6644 C 65.8994,79.9659 65.8241,80.2535 65.7606,80.5272 C 65.6971,80.8009 65.6614,81.0289 65.6535,81.2114 L 65.6297,81.2114 C 65.6218,81.0289 65.5841,80.8048 65.5167,80.5391 C 65.4492,80.2733 65.3719,79.9897 65.2846,79.6882 L 64.6063,77.4153 L 66.6293,77.4153 z
M 73.5432,74 L 72.6626,74 L 72.6626,74.6426 L 72.6388,74.6426 C 72.615,74.595 72.5634,74.5256 72.4841,74.4344 C 72.4048,74.3431 72.3036,74.2559 72.1807,74.1726 C 72.0577,74.0893 71.9089,74.0159 71.7344,73.9524 C 71.5599,73.8889 71.3655,73.8572 71.1513,73.8572 C 70.8974,73.8572 70.6694,73.8949 70.4671,73.9702 C 70.2648,74.0456 70.0922,74.1666 69.9494,74.3332 C 69.8066,74.4998 69.6975,74.716 69.6222,74.9818 C 69.5468,75.2475 69.5091,75.5748 69.5091,75.9635 L 69.5091,79.712 L 70.473,79.712 L 70.473,76.0349 C 70.473,75.5589 70.5504,75.2198 70.7051,75.0174 C 70.8598,74.8152 71.0997,74.714 71.425,74.714 C 71.7027,74.714 71.9367,74.7834 72.1271,74.9223 C 72.3175,75.0611 72.4682,75.1979 72.5793,75.3328 L 72.5793,79.712 L 73.5432,79.712 L 73.5432,74 z
M 77.4821,78.5577 C 77.4186,78.6291 77.3036,78.7263 77.137,78.8493 C 76.9704,78.9722 76.7522,79.0337 76.4825,79.0337 C 76.2286,79.0337 76.0343,78.9742 75.8994,78.8552 C 75.7645,78.7362 75.6971,78.5934 75.6971,78.4268 C 75.6971,78.2126 75.7586,78.0361 75.8816,77.8973 C 76.0045,77.7584 76.1929,77.6097 76.4468,77.451 L 76.8038,77.2368 C 77.1925,77.0067 77.498,76.7588 77.7201,76.4931 C 77.9422,76.2273 78.0533,75.8842 78.0533,75.4637 C 78.0533,75.0115 77.8966,74.6307 77.5833,74.3213 C 77.2699,74.0119 76.8197,73.8572 76.2326,73.8572 C 76.0025,73.8572 75.8002,73.881 75.6257,73.9286 C 75.4512,73.9762 75.2984,74.0317 75.1676,74.0952 C 75.0367,74.1587 74.9276,74.2281 74.8403,74.3034 C 74.753,74.3788 74.6816,74.4482 74.6261,74.5117 L 75.0902,75.2733 C 75.1378,75.2257 75.1953,75.1702 75.2628,75.1067 C 75.3302,75.0432 75.4115,74.9818 75.5067,74.9223 C 75.6019,74.8628 75.709,74.8132 75.828,74.7735 C 75.947,74.7338 76.0858,74.714 76.2445,74.714 C 76.5301,74.714 76.7483,74.7775 76.899,74.9044 C 77.0497,75.0313 77.1251,75.186 77.1251,75.3685 C 77.1251,75.5034 77.1073,75.6204 77.0716,75.7196 C 77.0359,75.8187 76.9823,75.908 76.9109,75.9873 C 76.8395,76.0666 76.7522,76.142 76.6491,76.2134 C 76.546,76.2848 76.427,76.3641 76.2921,76.4514 L 75.9351,76.6775 C 75.5781,76.9076 75.2984,77.1495 75.0962,77.4034 C 74.8939,77.6573 74.7927,77.9825 74.7927,78.3792 C 74.7927,78.5934 74.8344,78.7898 74.9177,78.9683 C 75.001,79.1467 75.118,79.3014 75.2687,79.4324 C 75.4194,79.5633 75.596,79.6664 75.7983,79.7418 C 76.0006,79.8171 76.2167,79.8548 76.4468,79.8548 C 76.6689,79.8548 76.8593,79.833 77.018,79.7894 C 77.1767,79.7457 77.3135,79.6902 77.4286,79.6228 C 77.5436,79.5553 77.6388,79.4879 77.7142,79.4205 C 77.7895,79.353 77.851,79.2955 77.8986,79.2479 L 77.4821,78.5577 z
M 85.7169,79.712 L 83.9795,74 L 83.1227,74 L 82.5396,75.9992 C 82.4523,76.2848 82.379,76.5506 82.3195,76.7965 C 82.26,77.0424 82.2223,77.2765 82.2064,77.4986 L 82.1826,77.4986 C 82.1667,77.2765 82.1231,77.0385 82.0517,76.7846 C 81.9803,76.5307 81.897,76.265 81.8018,75.9873 L 81.1473,74 L 80.3262,74 L 78.5293,79.712 L 79.5646,79.712 L 80.4214,76.4752 C 80.5007,76.1737 80.5702,75.8941 80.6297,75.6363 C 80.6892,75.3784 80.7229,75.1345 80.7308,74.9044 L 80.7546,74.9044 C 80.7784,75.1345 80.828,75.3745 80.9034,75.6244 C 80.9787,75.8743 81.064,76.146 81.1592,76.4395 L 81.778,78.3078 L 81.3496,79.712 L 82.3492,79.712 L 83.2179,76.5585 C 83.3052,76.2332 83.3845,75.9278 83.4559,75.6422 C 83.5273,75.3566 83.567,75.1107 83.5749,74.9044 L 83.5987,74.9044 C 83.6146,75.1107 83.6542,75.3586 83.7177,75.6482 C 83.7812,75.9377 83.8565,76.2412 83.9438,76.5585 L 84.7887,79.712 L 85.7169,79.712 z
M 86.2286,75.4518 C 86.2286,75.785 86.2921,76.0627 86.419,76.2848 C 86.5459,76.5069 86.7165,76.6874 86.9307,76.8263 C 87.1449,76.9651 87.3968,77.0643 87.6864,77.1238 C 87.9759,77.1833 88.2833,77.213 88.6086,77.213 L 88.9061,77.213 L 88.9061,77.7604 C 88.9061,78.2443 88.8208,78.5775 88.6503,78.76 C 88.4797,78.9425 88.2397,79.0337 87.9303,79.0337 C 87.6447,79.0337 87.4067,78.9722 87.2163,78.8493 C 87.0259,78.7263 86.8752,78.6172 86.7641,78.522 L 86.3595,79.1646 C 86.423,79.2281 86.5043,79.2995 86.6035,79.3788 C 86.7026,79.4581 86.8236,79.5335 86.9664,79.6049 C 87.1092,79.6763 87.2718,79.7358 87.4543,79.7834 C 87.6368,79.831 87.843,79.8548 88.0731,79.8548 C 88.6602,79.8548 89.1044,79.6922 89.4059,79.3669 C 89.7074,79.0416 89.8581,78.518 89.8581,77.7961 L 89.8581,75.19 C 89.8581,74.9441 89.866,74.7041 89.8819,74.4701 C 89.8978,74.236 89.9136,74.0793 89.9295,74 L 89.0132,74 L 88.9775,74.6307 L 88.9537,74.6307 C 88.922,74.5593 88.8744,74.478 88.8109,74.3868 C 88.7474,74.2955 88.6681,74.2122 88.5729,74.1368 C 88.4777,74.0615 88.3627,73.996 88.2278,73.9405 C 88.0929,73.885 87.9343,73.8572 87.7518,73.8572 C 87.5376,73.8572 87.3373,73.8969 87.1509,73.9762 C 86.9644,74.0555 86.8018,74.1666 86.663,74.3094 C 86.5241,74.4522 86.417,74.6208 86.3417,74.8152 C 86.2663,75.0095 86.2286,75.2217 86.2286,75.4518 z
M 87.9541,74.6783 C 88.089,74.6783 88.208,74.6981 88.3111,74.7378 C 88.4142,74.7775 88.5035,74.8251 88.5789,74.8806 C 88.6542,74.9361 88.7177,74.9976 88.7693,75.0651 C 88.8208,75.1325 88.8664,75.19 88.9061,75.2376 L 88.9061,76.499 L 88.5967,76.4871 C 88.1366,76.4712 87.7875,76.3919 87.5495,76.2491 C 87.3115,76.1063 87.1925,75.8762 87.1925,75.5589 C 87.1925,75.2654 87.2599,75.0452 87.3948,74.8985 C 87.5297,74.7517 87.7161,74.6783 87.9541,74.6783 z
M 87.728,81.3542 C 87.728,81.1717 87.6725,81.025 87.5614,80.9139 C 87.4503,80.8028 87.3155,80.7473 87.1568,80.7473 C 86.9981,80.7473 86.8633,80.8028 86.7522,80.9139 C 86.6411,81.025 86.5856,81.1717 86.5856,81.3542 C 86.5856,81.5367 86.6411,81.6834 86.7522,81.7945 C 86.8633,81.9056 86.9981,81.9611 87.1568,81.9611 C 87.3155,81.9611 87.4503,81.9056 87.5614,81.7945 C 87.6725,81.6834 87.728,81.5367 87.728,81.3542 z
M 89.5606,81.3542 C 89.5606,81.1717 89.5051,81.025 89.394,80.9139 C 89.2829,80.8028 89.1481,80.7473 88.9894,80.7473 C 88.8307,80.7473 88.6959,80.8028 88.5848,80.9139 C 88.4737,81.025 88.4182,81.1717 88.4182,81.3542 C 88.4182,81.5367 88.4737,81.6834 88.5848,81.7945 C 88.6959,81.9056 88.8307,81.9611 88.9894,81.9611 C 89.1481,81.9611 89.2829,81.9056 89.394,81.7945 C 89.5051,81.6834 89.5606,81.5367 89.5606,81.3542 z
M 93.8208,78.8671 C 93.797,78.883 93.7454,78.9028 93.6661,78.9266 C 93.5868,78.9504 93.4797,78.9623 93.3448,78.9623 C 93.0433,78.9623 92.8073,78.881 92.6368,78.7184 C 92.4662,78.5557 92.3452,78.3792 92.2738,78.1888 L 92.2738,74 L 91.3099,74 L 91.3099,79.712 L 92.1905,79.712 L 92.1905,78.9385 L 92.2143,78.9385 C 92.254,79.0496 92.3055,79.1587 92.369,79.2658 C 92.4325,79.3729 92.5118,79.4681 92.607,79.5514 C 92.7022,79.6347 92.8152,79.7001 92.9461,79.7477 C 93.0771,79.7953 93.2337,79.8191 93.4162,79.8191 C 93.5511,79.8191 93.6602,79.8072 93.7435,79.7834 C 93.8268,79.7596 93.8922,79.7398 93.9398,79.7239 L 93.8208,78.8671 z
M 97.2123,78.9266 L 95.9628,78.9266 L 95.9628,75.7612 C 95.9628,75.3566 96.0144,75.0809 96.1175,74.9342 C 96.2206,74.7874 96.3952,74.714 96.6411,74.714 C 96.7839,74.714 96.9069,74.7338 97.01,74.7735 C 97.1131,74.8132 97.1885,74.8489 97.2361,74.8806 L 97.367,74.1071 C 97.3273,74.0754 97.2321,74.0258 97.0814,73.9583 C 96.9307,73.8909 96.7284,73.8572 96.4745,73.8572 C 95.9826,73.8572 95.6137,73.994 95.3678,74.2678 C 95.1219,74.5414 94.9989,74.9956 94.9989,75.6303 L 94.9989,78.9266 L 94.3087,78.9266 L 94.3087,79.5692 L 94.9989,79.712 L 95.106,81.3066 L 95.9628,81.3066 L 95.9628,79.712 L 97.3313,79.712 L 97.2123,78.9266 z
M 99.271,74 L 98.3071,74 L 98.3071,79.712 L 99.271,79.712 L 99.271,74 z
M 98.795,81.0924 C 98.5967,81.0924 98.438,81.1559 98.319,81.2828 C 98.2,81.4097 98.1405,81.5763 98.1405,81.7826 C 98.1405,81.9809 98.2,82.1436 98.319,82.2705 C 98.438,82.3974 98.5967,82.4609 98.795,82.4609 C 98.9854,82.4609 99.1401,82.3974 99.2591,82.2705 C 99.3781,82.1436 99.4376,81.9809 99.4376,81.7826 C 99.4376,81.5763 99.3781,81.4097 99.2591,81.2828 C 99.1401,81.1559 98.9854,81.0924 98.795,81.0924 z
M 104.8402,78.9623 L 104.1262,78.9623 C 104.3087,78.6608 104.3999,78.3197 104.3999,77.9389 C 104.3999,77.6374 104.3503,77.3657 104.2512,77.1238 C 104.152,76.8818 104.0132,76.6775 103.8347,76.5109 C 103.6562,76.3443 103.4459,76.2174 103.204,76.1301 C 102.962,76.0428 102.7022,75.9992 102.4245,75.9992 C 102.369,75.9992 102.3174,75.9992 102.2698,75.9992 C 102.2222,75.9992 102.1706,76.0032 102.1151,76.0111 C 102.0199,75.9714 101.9207,75.908 101.8176,75.8207 C 101.7145,75.7334 101.6629,75.6184 101.6629,75.4756 C 101.6629,75.3566 101.7085,75.2594 101.7998,75.1841 C 101.891,75.1087 102.0397,75.071 102.246,75.071 L 102.9719,75.071 C 103.2416,75.071 103.4915,75.0432 103.7216,74.9877 C 103.9517,74.9322 104.152,74.8429 104.3226,74.72 C 104.4931,74.597 104.626,74.4403 104.7212,74.2499 C 104.8164,74.0595 104.864,73.8294 104.864,73.5597 C 104.864,73.2503 104.7986,72.9687 104.6677,72.7148 C 104.5368,72.4609 104.3523,72.2428 104.1143,72.0603 C 103.8763,71.8778 103.5867,71.735 103.2456,71.6319 C 102.9045,71.5288 102.5237,71.4772 102.1032,71.4772 C 101.4923,71.4772 101.0282,71.6101 100.7109,71.8758 C 100.3936,72.1416 100.2349,72.5244 100.2349,73.0242 C 100.2349,73.2384 100.2726,73.4228 100.348,73.5775 C 100.4233,73.7322 100.5126,73.8671 100.6157,73.9821 C 100.7188,74.0972 100.824,74.1884 100.9311,74.2559 C 101.0381,74.3233 101.1234,74.3768 101.1869,74.4165 L 101.1869,74.4403 C 100.941,74.6228 100.818,74.8885 100.818,75.2376 C 100.818,75.3883 100.8478,75.5192 100.9073,75.6303 C 100.9668,75.7414 101.0342,75.8326 101.1096,75.904 C 101.1849,75.9754 101.2603,76.0329 101.3357,76.0766 C 101.411,76.1202 101.4685,76.1499 101.5082,76.1658 L 101.5082,76.1896 C 101.2147,76.3245 100.9787,76.5367 100.8002,76.8263 C 100.6217,77.1158 100.5324,77.4867 100.5324,77.9389 C 100.5324,78.2562 100.584,78.5359 100.6871,78.7778 C 100.7902,79.0198 100.9291,79.2201 101.1036,79.3788 C 101.2781,79.5375 101.4824,79.6565 101.7165,79.7358 C 101.9505,79.8151 102.2024,79.8548 102.4721,79.8548 C 102.7418,79.8548 102.9957,79.8072 103.2337,79.712 L 104.9711,79.712 L 104.8402,78.9623 z
M 102.1865,74.1785 C 102.0199,74.1785 101.8731,74.1904 101.7462,74.2142 C 101.6748,74.1745 101.6054,74.1269 101.538,74.0714 C 101.4705,74.0159 101.409,73.9484 101.3535,73.8691 C 101.298,73.7898 101.2524,73.6966 101.2167,73.5894 C 101.181,73.4823 101.1631,73.3574 101.1631,73.2146 C 101.1631,72.6037 101.5003,72.2983 102.1746,72.2983 C 102.7537,72.2983 103.1821,72.4113 103.4598,72.6374 C 103.7375,72.8635 103.8763,73.1234 103.8763,73.4169 C 103.8763,73.6946 103.789,73.8909 103.6145,74.006 C 103.44,74.121 103.2059,74.1785 102.9124,74.1785 L 102.1865,74.1785 z
M 103.4598,77.9389 C 103.4598,78.3514 103.3626,78.645 103.1683,78.8195 C 102.9739,78.994 102.7458,79.0813 102.484,79.0813 C 102.2063,79.0813 101.9683,78.994 101.77,78.8195 C 101.5717,78.645 101.4725,78.3514 101.4725,77.9389 C 101.4725,77.5264 101.5717,77.2328 101.77,77.0583 C 101.9683,76.8838 102.1984,76.7965 102.4602,76.7965 C 102.7379,76.7965 102.9739,76.8838 103.1683,77.0583 C 103.3626,77.2328 103.4598,77.5264 103.4598,77.9389 z
M 109.5288,77.7842 C 109.5288,77.5383 109.5209,77.3261 109.505,77.1476 C 109.4891,76.9691 109.4733,76.8124 109.4574,76.6775 L 106.5419,76.6775 C 106.5736,76.0032 106.7184,75.5073 106.9763,75.19 C 107.2341,74.8727 107.605,74.714 108.0889,74.714 C 108.2555,74.714 108.4062,74.7338 108.5411,74.7735 C 108.676,74.8132 108.793,74.8608 108.8922,74.9163 C 108.9913,74.9718 109.0746,75.0274 109.1421,75.0829 C 109.2095,75.1384 109.2591,75.1821 109.2908,75.2138 L 109.6478,74.5355 C 109.6081,74.4958 109.5486,74.4383 109.4693,74.363 C 109.39,74.2876 109.2829,74.2122 109.148,74.1368 C 109.0131,74.0615 108.8465,73.996 108.6482,73.9405 C 108.4499,73.885 108.2158,73.8572 107.9461,73.8572 C 107.5891,73.8572 107.2658,73.9167 106.9763,74.0357 C 106.6867,74.1547 106.4408,74.3392 106.2385,74.5891 C 106.0362,74.839 105.8795,75.1563 105.7684,75.5411 C 105.6573,75.9258 105.6018,76.3879 105.6018,76.9274 C 105.6018,77.4351 105.6593,77.8735 105.7744,78.2424 C 105.8894,78.6113 106.0461,78.9147 106.2444,79.1527 C 106.4427,79.3907 106.6728,79.5672 106.9346,79.6823 C 107.1964,79.7973 107.478,79.8548 107.7795,79.8548 C 108.3269,79.8548 108.7553,79.6823 109.0647,79.3372 C 109.3741,78.9921 109.5288,78.4744 109.5288,77.7842 z
M 107.72,79.0694 C 107.3789,79.0694 107.1052,78.9266 106.8989,78.641 C 106.6926,78.3554 106.5736,77.9429 106.5419,77.4034 L 108.6244,77.4034 C 108.6323,77.4431 108.6383,77.5006 108.6423,77.576 C 108.6462,77.6513 108.6482,77.7326 108.6482,77.8199 C 108.6482,78.2166 108.5689,78.524 108.4102,78.7422 C 108.2515,78.9603 108.0215,79.0694 107.72,79.0694 z
M 113.2773,78.5577 C 113.2138,78.6291 113.0988,78.7263 112.9322,78.8493 C 112.7656,78.9722 112.5474,79.0337 112.2777,79.0337 C 112.0238,79.0337 111.8295,78.9742 111.6946,78.8552 C 111.5597,78.7362 111.4923,78.5934 111.4923,78.4268 C 111.4923,78.2126 111.5538,78.0361 111.6768,77.8973 C 111.7997,77.7584 111.9881,77.6097 112.242,77.451 L 112.599,77.2368 C 112.9877,77.0067 113.2932,76.7588 113.5153,76.4931 C 113.7374,76.2273 113.8485,75.8842 113.8485,75.4637 C 113.8485,75.0115 113.6918,74.6307 113.3785,74.3213 C 113.0651,74.0119 112.6149,73.8572 112.0278,73.8572 C 111.7977,73.8572 111.5954,73.881 111.4209,73.9286 C 111.2464,73.9762 111.0936,74.0317 110.9628,74.0952 C 110.8319,74.1587 110.7228,74.2281 110.6355,74.3034 C 110.5482,74.3788 110.4768,74.4482 110.4213,74.5117 L 110.8854,75.2733 C 110.933,75.2257 110.9905,75.1702 111.058,75.1067 C 111.1254,75.0432 111.2067,74.9818 111.3019,74.9223 C 111.3971,74.8628 111.5042,74.8132 111.6232,74.7735 C 111.7422,74.7338 111.881,74.714 112.0397,74.714 C 112.3253,74.714 112.5435,74.7775 112.6942,74.9044 C 112.8449,75.0313 112.9203,75.186 112.9203,75.3685 C 112.9203,75.5034 112.9025,75.6204 112.8668,75.7196 C 112.8311,75.8187 112.7775,75.908 112.7061,75.9873 C 112.6347,76.0666 112.5474,76.142 112.4443,76.2134 C 112.3412,76.2848 112.2222,76.3641 112.0873,76.4514 L 111.7303,76.6775 C 111.3733,76.9076 111.0936,77.1495 110.8914,77.4034 C 110.6891,77.6573 110.5879,77.9825 110.5879,78.3792 C 110.5879,78.5934 110.6296,78.7898 110.7129,78.9683 C 110.7962,79.1467 110.9132,79.3014 111.0639,79.4324 C 111.2146,79.5633 111.3912,79.6664 111.5935,79.7418 C 111.7958,79.8171 112.0119,79.8548 112.242,79.8548 C 112.4641,79.8548 112.6545,79.833 112.8132,79.7894 C 112.9719,79.7457 113.1087,79.6902 113.2238,79.6228 C 113.3388,79.5553 113.434,79.4879 113.5094,79.4205 C 113.5847,79.353 113.6462,79.2955 113.6938,79.2479 L 113.2773,78.5577 z
M 122.7616,74 L 121.6192,74 L 120.8814,76.6299 L 118.3943,76.6299 L 117.6446,74 L 116.5974,74 L 119.2749,82.211 L 120.0841,82.211 L 122.7616,74 z
M 120.6553,77.4153 L 120.0127,79.6644 C 119.9254,79.9659 119.8501,80.2535 119.7866,80.5272 C 119.7231,80.8009 119.6874,81.0289 119.6795,81.2114 L 119.6557,81.2114 C 119.6478,81.0289 119.6101,80.8048 119.5427,80.5391 C 119.4752,80.2733 119.3979,79.9897 119.3106,79.6882 L 118.6323,77.4153 L 120.6553,77.4153 z
M 126.5696,74 L 126.5696,77.6771 C 126.5696,78.1452 126.5022,78.4823 126.3673,78.6886 C 126.2324,78.8949 126.0143,78.998 125.7128,78.998 C 125.5541,78.998 125.4133,78.9782 125.2904,78.9385 C 125.1674,78.8988 125.0583,78.8493 124.9631,78.7898 C 124.8679,78.7303 124.7846,78.6648 124.7132,78.5934 C 124.6418,78.522 124.5823,78.4585 124.5347,78.403 L 124.5347,74 L 123.5708,74 L 123.5708,79.712 L 124.4514,79.712 L 124.4514,79.0694 L 124.4752,79.0694 C 124.5149,79.1329 124.5744,79.2102 124.6537,79.3014 C 124.733,79.3927 124.8322,79.48 124.9512,79.5633 C 125.0702,79.6466 125.209,79.716 125.3677,79.7715 C 125.5264,79.827 125.7049,79.8548 125.9032,79.8548 C 126.5537,79.8548 127.0139,79.6009 127.2836,79.0932 C 127.3391,79.1725 127.4145,79.2578 127.5097,79.3491 C 127.6049,79.4403 127.716,79.5236 127.8429,79.599 C 127.9698,79.6743 128.1126,79.7358 128.2713,79.7834 C 128.43,79.831 128.6045,79.8548 128.7949,79.8548 C 129.9532,79.8548 130.5323,79.1805 130.5323,77.8318 L 130.5323,74 L 129.5684,74 L 129.5684,77.6771 C 129.5684,78.1452 129.4851,78.4823 129.3185,78.6886 C 129.1519,78.8949 128.906,78.998 128.5807,78.998 C 128.311,78.998 128.0869,78.9325 127.9084,78.8017 C 127.7299,78.6707 127.589,78.5458 127.4859,78.4268 C 127.5018,78.3395 127.5137,78.2463 127.5216,78.1471 C 127.5295,78.048 127.5335,77.9429 127.5335,77.8318 L 127.5335,74 L 126.5696,74 z
M 134.4117,78.9266 L 133.1622,78.9266 L 133.1622,75.7612 C 133.1622,75.3566 133.2138,75.0809 133.3169,74.9342 C 133.42,74.7874 133.5946,74.714 133.8405,74.714 C 133.9833,74.714 134.1063,74.7338 134.2094,74.7735 C 134.3125,74.8132 134.3879,74.8489 134.4355,74.8806 L 134.5664,74.1071 C 134.5267,74.0754 134.4315,74.0258 134.2808,73.9583 C 134.1301,73.8909 133.9278,73.8572 133.6739,73.8572 C 133.182,73.8572 132.8131,73.994 132.5672,74.2678 C 132.3213,74.5414 132.1983,74.9956 132.1983,75.6303 L 132.1983,78.9266 L 131.5081,78.9266 L 131.5081,79.5692 L 132.1983,79.712 L 132.3054,81.3066 L 133.1622,81.3066 L 133.1622,79.712 L 134.5307,79.712 L 134.4117,78.9266 z
" fill="#000000"/>
  </g>
  <g id="Adler-und-Saeulenelement">
    <path d="M37.173,29.339 C37.2,29.115 37.216,28.884 37.216,28.648 C37.216,28.519 37.217,28.369 37.201,28.199 C39.194,28.171 40.942,26.735 40.942,25.084 C40.942,24.244 40.394,23.61 40.085,23.231 C40.154,23.216 40.224,23.2 40.295,23.183 C40.587,23.437 41.415,24.339 41.415,25.478 C41.415,27.459 39.435,29.298 37.173,29.339 M35.165,22.44 C35.128,22.219 35.044,22.019 34.916,21.847 C34.923,21.645 35.006,21.452 35.331,21.611 C35.155,21.791 35.291,22.11 35.291,22.11 C35.291,22.11 35.651,21.943 35.576,21.705 C36.11,21.833 35.726,22.55 35.165,22.44 M34.702,23.457 C34.631,23.161 34.479,22.857 34.286,22.628 C34.11,22.42 33.819,22.173 33.427,22.173 C33.248,22.173 32.948,22.257 32.757,22.338 C32.686,22.208 32.547,21.895 32.547,21.754 C32.547,21.609 32.792,21.462 33.261,21.462 C34.293,21.462 34.909,21.928 34.909,22.71 C34.909,22.985 34.8,23.235 34.702,23.457 M37.352,36.757 C37.472,36.757 37.53,36.776 37.6,36.802 C37.897,37.61 39.042,39.135 39.09,39.2 L39.1,39.214 L39.117,39.21 C39.398,39.165 40.115,39.057 40.715,39.057 L40.729,39.057 C40.794,39.057 40.868,39.057 40.915,39.103 C40.954,39.142 40.973,39.21 40.973,39.307 C40.973,39.456 40.91,39.711 40.834,39.82 C40.624,39.591 40.283,39.488 39.737,39.488 C39.573,39.488 39.379,39.537 39.274,39.565 L39.231,39.574 L39.182,39.587 L39.497,39.902 C39.983,40.388 40.403,40.807 40.403,41.086 C40.403,41.254 40.239,41.473 40.089,41.57 C40.056,41.059 39.54,40.375 39.037,39.992 L38.994,39.96 L38.986,40.14 C38.979,40.262 38.968,40.445 38.968,40.641 C38.968,41.614 38.869,41.762 38.532,41.762 C38.48,41.762 38.401,41.747 38.352,41.729 C38.542,41.494 38.617,41.184 38.617,40.64 L38.614,40.389 L38.611,40.187 C38.611,39.964 38.634,39.799 38.652,39.666 L38.662,39.591 L38.609,39.584 C38.451,39.562 38.158,39.522 37.934,39.522 C37.453,39.522 37.127,39.566 36.891,39.788 C36.735,39.662 36.575,39.445 36.575,39.308 C36.575,39.105 36.701,39.089 36.867,39.089 C36.951,39.089 37.029,39.101 37.137,39.114 C37.344,39.145 37.655,39.191 38.296,39.191 L38.336,39.191 L38.323,39.152 C38.161,38.687 37.715,38.011 37,37.142 C37.064,36.909 37.127,36.757 37.352,36.757 M31.178,39.152 L31.165,39.191 L31.205,39.191 C31.845,39.191 32.157,39.145 32.364,39.114 C32.472,39.101 32.55,39.089 32.634,39.089 C32.799,39.089 32.926,39.105 32.926,39.308 C32.926,39.445 32.766,39.662 32.611,39.788 C32.374,39.566 32.048,39.522 31.568,39.522 C31.343,39.522 31.049,39.562 30.892,39.584 L30.867,39.587 L30.839,39.591 L30.848,39.666 C30.867,39.799 30.89,39.964 30.89,40.187 L30.887,40.389 L30.884,40.64 C30.884,41.184 30.959,41.494 31.15,41.729 C31.1,41.747 31.021,41.762 30.969,41.762 C30.631,41.762 30.533,41.614 30.533,40.641 C30.533,40.445 30.523,40.262 30.516,40.14 L30.506,39.959 L30.464,39.992 C29.962,40.375 29.444,41.059 29.413,41.57 C29.262,41.473 29.098,41.254 29.098,41.086 C29.098,40.807 29.518,40.388 30.004,39.902 L30.283,39.623 L30.319,39.587 L30.227,39.565 C30.122,39.537 29.928,39.488 29.763,39.488 C29.218,39.488 28.878,39.591 28.667,39.82 C28.591,39.711 28.528,39.456 28.528,39.307 C28.528,39.21 28.547,39.142 28.586,39.103 C28.633,39.057 28.707,39.057 28.772,39.057 L28.786,39.057 C29.386,39.057 30.104,39.165 30.384,39.21 L30.401,39.214 L30.411,39.2 C30.46,39.135 31.604,37.61 31.902,36.802 C31.97,36.776 32.029,36.757 32.149,36.757 C32.374,36.757 32.437,36.909 32.502,37.142 C31.786,38.011 31.34,38.687 31.178,39.152 M28.086,25.478 C28.086,24.339 28.915,23.437 29.207,23.183 C29.277,23.2 29.347,23.216 29.417,23.231 C29.107,23.61 28.559,24.244 28.559,25.084 C28.559,26.752 30.341,28.2 32.359,28.2 C32.346,28.343 32.339,28.493 32.339,28.648 C32.339,28.894 32.353,29.123 32.377,29.339 C30.095,29.325 28.086,27.473 28.086,25.478 M43.392,28.991 C44.416,30.61 45.217,30.583 46.427,30.583 C45.426,29.816 44.764,28.833 44.448,28.331 L42.578,25.339 C42.396,24.415 41.918,23.551 41.202,22.908 C41.443,22.817 41.643,22.721 41.763,22.63 C40.542,22.63 39.332,22.01 38.666,22.01 C38.238,22.01 37.963,22.266 37.963,22.604 C37.99,22.981 38.378,23.364 39.095,23.364 C39.257,23.364 39.465,23.343 39.693,23.305 C40.081,23.846 40.394,24.335 40.394,25.033 C40.394,26.343 38.828,27.364 37.247,27.364 C37.157,27.364 37.072,27.36 36.983,27.354 C36.84,27.029 36.363,26.484 36.363,25.864 C36.363,24.823 37.042,23.973 37.042,22.942 C37.042,22.301 36.73,21.904 36.61,21.739 C36.804,21.559 37.016,21.338 37.066,21.186 C36.953,21.235 36.819,21.241 36.624,21.241 C35.866,21.241 35.248,21.044 34.646,21.044 C34.302,21.044 34.21,21.15 34.21,21.251 C34.21,21.288 34.215,21.326 34.225,21.344 C34.097,21.294 33.977,21.261 33.834,21.235 C33.656,21.201 33.465,21.184 33.261,21.184 C32.529,21.184 32.269,21.491 32.269,21.754 C32.269,21.976 32.444,22.382 32.643,22.692 C32.928,22.548 33.271,22.451 33.427,22.451 C33.816,22.451 34.161,22.821 34.344,23.259 C34.083,23.291 34.033,23.302 33.769,23.302 C33.056,23.302 32.571,23.047 32.471,23.047 C32.462,23.047 32.443,23.052 32.443,23.068 C32.443,23.168 32.645,23.432 33.043,23.577 C33.568,23.769 34.354,23.849 34.485,23.871 C34.485,23.894 34.352,24.142 34.203,24.19 C34.172,24.2 34.147,24.201 34.11,24.193 C33.562,24.085 33.409,24.039 32.714,23.775 C32.693,23.767 32.68,23.78 32.68,23.802 C32.68,24.077 33.392,24.684 34.03,24.917 C33.497,25.597 32.832,26.293 32.518,27.354 C32.429,27.36 32.343,27.364 32.254,27.364 C30.673,27.364 29.107,26.343 29.107,25.033 C29.107,24.335 29.42,23.846 29.808,23.305 C30.036,23.343 30.243,23.364 30.406,23.364 C31.123,23.364 31.511,22.981 31.539,22.604 C31.539,22.266 31.264,22.01 30.835,22.01 C30.169,22.01 28.96,22.63 27.737,22.63 C27.858,22.721 28.058,22.817 28.298,22.908 C27.583,23.551 27.105,24.415 26.923,25.339 L25.053,28.331 C24.738,28.833 24.074,29.816 23.073,30.583 C24.283,30.583 25.085,30.61 26.109,28.991 L27.068,27.457 C27.139,27.656 27.226,27.85 27.329,28.04 L25.422,31.091 C25.105,31.597 24.447,32.571 23.442,33.343 C24.652,33.343 25.454,33.371 26.478,31.753 L28.119,29.125 C28.242,29.256 28.371,29.384 28.507,29.506 L26.191,33.214 C25.873,33.721 25.219,34.693 24.212,35.464 C25.422,35.464 26.224,35.493 27.247,33.874 L29.505,30.259 C29.654,30.353 29.806,30.444 29.964,30.53 L27.207,34.941 C26.889,35.448 26.235,36.417 25.228,37.191 C26.438,37.191 27.24,37.219 28.264,35.601 L31.102,31.058 C31.27,31.122 31.44,31.184 31.613,31.239 L28.406,36.372 C28.093,36.872 27.424,37.859 26.428,38.622 C27.637,38.622 28.44,38.65 29.463,37.032 L32.881,31.562 C32.916,31.568 32.95,31.573 32.984,31.58 C33.077,31.876 33.142,32.152 33.142,32.427 C33.142,34.146 32.014,35.664 30.66,36.836 C30.747,36.874 30.898,36.887 31.037,36.887 C31.317,36.887 31.497,36.872 31.624,36.85 C31.31,37.563 30.636,38.484 30.296,38.96 C29.853,38.88 29.208,38.818 28.786,38.818 C28.344,38.818 28.294,39.076 28.294,39.307 C28.294,39.708 28.482,40.027 28.7,40.205 C28.782,40 28.947,39.726 29.763,39.726 C29.779,39.726 29.807,39.728 29.845,39.731 C29.607,39.996 28.86,40.6 28.86,41.086 C28.86,41.408 29.213,41.891 29.678,41.891 C29.651,41.787 29.654,41.692 29.654,41.62 C29.654,41.226 30.003,40.765 30.298,40.443 C30.289,40.539 30.294,40.529 30.294,40.641 C30.294,41.572 30.378,42 30.969,42 C31.259,42 31.459,41.841 31.528,41.793 C31.144,41.44 31.124,41.162 31.124,40.64 C31.125,40.504 31.126,40.371 31.128,40.188 C31.129,40.068 31.127,39.91 31.108,39.796 C31.319,39.767 31.405,39.767 31.568,39.767 C31.568,39.767 32.407,39.7 32.61,40.137 C32.838,39.928 33.169,39.633 33.169,39.308 C33.169,39.093 33.067,38.85 32.634,38.85 C32.47,38.85 31.955,38.95 31.524,38.95 C31.64,38.693 32.155,37.939 32.602,37.392 C32.67,37.604 32.775,37.833 33.009,38.021 C33.042,37.669 33.248,36.556 33.798,35.905 C33.862,36.345 33.948,36.796 33.948,37.747 C33.948,40.061 33.392,41.77 32.211,42.096 C32.365,42.363 32.69,42.604 33.027,42.604 C33.459,42.604 33.694,42.115 33.934,41.654 C34.059,41.994 34.404,42.828 34.75,42.828 C35.096,42.828 35.442,41.994 35.567,41.654 C35.806,42.115 36.042,42.604 36.474,42.604 C36.811,42.604 37.136,42.363 37.29,42.096 C36.109,41.77 35.552,40.061 35.552,37.747 C35.552,36.796 35.638,36.345 35.702,35.905 C36.253,36.556 36.46,37.669 36.491,38.021 C36.726,37.833 36.832,37.604 36.899,37.392 C37.345,37.939 37.861,38.693 37.977,38.95 C37.546,38.95 37.03,38.85 36.867,38.85 C36.435,38.85 36.333,39.093 36.333,39.308 C36.333,39.633 36.664,39.928 36.892,40.137 C37.093,39.7 37.934,39.767 37.934,39.767 C38.096,39.767 38.182,39.767 38.394,39.796 C38.374,39.91 38.373,40.068 38.374,40.188 C38.376,40.371 38.376,40.504 38.377,40.64 C38.377,41.162 38.357,41.44 37.973,41.793 C38.042,41.841 38.242,42 38.532,42 C39.123,42 39.208,41.572 39.208,40.641 C39.208,40.529 39.211,40.539 39.203,40.443 C39.498,40.765 39.847,41.226 39.847,41.62 C39.847,41.692 39.851,41.787 39.822,41.891 C40.288,41.891 40.642,41.408 40.642,41.086 C40.642,40.6 39.895,39.996 39.655,39.731 C39.694,39.728 39.722,39.726 39.737,39.726 C40.554,39.726 40.719,40 40.801,40.205 C41.019,40.027 41.207,39.708 41.207,39.307 C41.207,39.076 41.157,38.818 40.715,38.818 C40.293,38.818 39.649,38.88 39.205,38.96 C38.864,38.484 38.192,37.563 37.877,36.85 C38.004,36.872 38.185,36.887 38.464,36.887 C38.604,36.887 38.754,36.874 38.841,36.836 C37.487,35.664 36.359,34.146 36.359,32.427 C36.359,32.152 36.424,31.876 36.517,31.58 C36.55,31.573 36.586,31.568 36.62,31.562 L40.038,37.032 C41.061,38.65 41.864,38.622 43.073,38.622 C42.077,37.859 41.408,36.872 41.095,36.372 L37.887,31.239 C38.061,31.184 38.232,31.122 38.4,31.058 L41.237,35.601 C42.261,37.219 43.063,37.191 44.273,37.191 C43.266,36.417 42.612,35.448 42.294,34.941 L39.538,30.53 C39.694,30.444 39.847,30.353 39.995,30.259 L42.254,33.874 C43.278,35.493 44.079,35.464 45.289,35.464 C44.282,34.693 43.629,33.721 43.31,33.214 L40.994,29.506 C41.13,29.384 41.26,29.256 41.381,29.125 L43.024,31.753 C44.047,33.371 44.849,33.343 46.059,33.343 C45.053,32.571 44.397,31.597 44.079,31.091 L42.173,28.04 C42.275,27.85 42.362,27.656 42.434,27.457 z" fill="#000000"/>
    <path d="M56,42 L52.5,42 L52.5,22 L56,22 z" fill="#000000"/>
    <path d="M56,62 L52.5,62 L52.5,42 L56,42 z" fill="#FF0000"/>
    <path d="M56,82 L52.5,82 L52.5,62 L56,62 z" fill="#FFCC00"/>
  </g>
</svg>
